<svg version="1.1" xmlns="http://www.w3.org/2000/svg" xmlns:xlink="http://www.w3.org/1999/xlink" width="6.40731" height="10.66746" viewBox="0,0,6.40731,10.66746"><g transform="translate(-236.79635,-174.66627)"><g data-paper-data="{&quot;isPaintingLayer&quot;:true}" fill-rule="nonzero" stroke-width="0" stroke-linecap="round" stroke-linejoin="miter" stroke-miterlimit="10" stroke-dasharray="" stroke-dashoffset="0" style="mix-blend-mode: normal"><path d="M243.19964,179.97967c-0.14836,2.50345 -4.8388,5.76981 -5.63459,5.31047c-1.23867,-0.71497 1.71155,-3.28482 1.66616,-5.45357c-0.04538,-2.16874 -3.20477,-3.73321 -2.25791,-5.04613c0.55475,-0.7692 6.40546,2.16642 6.22632,5.18923z" fill="#a3530d" stroke="#692206"/><path d="M239.74061,184.38617c-0.26455,0.18136 -0.75495,0.45506 -0.75495,0.45506c0,0 -0.39122,-0.09596 -0.64425,-0.24859c-0.31624,-0.19076 -0.84071,-0.6144 -0.84071,-0.6144l1.02057,-1.84371c0,0 1.03051,0.86664 1.38759,1.08533c0.33857,0.20736 0.92361,0.35532 0.92361,0.35532c0,0 -0.75738,0.58168 -1.09187,0.811z" fill="#671600" stroke="#000000"/><path d="M237.76655,176.9602c0,0 0.428,-0.34153 0.71616,-0.54761c0.324,-0.2317 1.05641,-0.97521 1.05641,-0.97521l1.61322,1.14288c0,0 -0.70986,0.85558 -1.10222,1.14828c-0.35897,0.26779 -1.2234,0.69712 -1.2234,0.69712z" fill="#681300" stroke="#000000"/></g></g></svg>